<?xml version="1.0" encoding="UTF-8" standalone="no"?>
<!-- Generator: Adobe Illustrator 19.0.0, SVG Export Plug-In . SVG Version: 6.00 Build 0)  -->

<svg
   version="1.1"
   id="layer"
   x="0px"
   y="0px"
   viewBox="-153 -46 620 114.20474"
   xml:space="preserve"
   sodipodi:docname="babolat-logo.svg"
   width="620"
   height="114.20474"
   inkscape:version="1.1.1 (3bf5ae0d25, 2021-09-20)"
   xmlns:inkscape="http://www.inkscape.org/namespaces/inkscape"
   xmlns:sodipodi="http://sodipodi.sourceforge.net/DTD/sodipodi-0.dtd"
   xmlns="http://www.w3.org/2000/svg"
   xmlns:svg="http://www.w3.org/2000/svg"><defs
   id="defs9" /><sodipodi:namedview
   id="namedview7"
   pagecolor="#ffffff"
   bordercolor="#999999"
   borderopacity="1"
   inkscape:pageshadow="0"
   inkscape:pageopacity="0"
   inkscape:pagecheckerboard="0"
   showgrid="false"
   fit-margin-top="10"
   fit-margin-right="10"
   fit-margin-bottom="10"
   fit-margin-left="10"
   inkscape:zoom="1.1027607"
   inkscape:cx="309.67733"
   inkscape:cy="56.675939"
   inkscape:window-width="1920"
   inkscape:window-height="1001"
   inkscape:window-x="-9"
   inkscape:window-y="-9"
   inkscape:window-maximized="1"
   inkscape:current-layer="layer" />
<style
   type="text/css"
   id="style2">
	.st0{fill:#111E6C;}
</style>
<path
   class="st0"
   d="m -27.7,-36 c -4.5,0 -17.3,0.4 -27.6,10.7 -9.4,9 -20.1,19.2 -24,22.8 H 16.5 L 33.3,-36 Z M -95.5,13 -143,58.2 h 111.1 c 1,0 18.1,0.6 24.2,-11.7 C -1.9,34.8 6.6,17.7 8.9,13 H -95.5 c 0,0 0,0 0,0 z m 88.2,39.8 -0.2,0.7 h 1.6 l -0.9,4 h 1.1 l 0.8,-4 h 1.6 l 0.2,-0.7 z m 6.5,0 0.3,1.9 c 0.1,0.5 0.1,1.1 0.2,1.6 v 0 C 0,55.8 0.3,55.2 0.6,54.7 l 1.2,-1.9 h 1.4 l -0.7,4.7 h -1 L 1.8,55.6 C 1.9,55 2,54.3 2.2,53.6 v 0 c -0.3,0.6 -0.7,1.2 -1.1,1.8 l -1.3,2 H -1 l -0.3,-2 c -0.1,-0.6 -0.1,-1.2 -0.2,-1.8 l -0.2,0.6 c -0.1,0.4 -0.2,0.9 -0.4,1.3 l -0.5,1.9 h -1 l 1.4,-4.7 c 0.1,0.1 1.4,0.1 1.4,0.1 z M 284.6,-7.8 v 0 h 2 c 18.8,0.1 22.6,1.6 26.8,6.2 3.2,3.5 3.7,7 2.5,12.3 0,0 -3.2,13.6 -3.8,15.8 -1,3.7 -2.8,8.4 -7.6,11.5 -5.7,3.6 -14.8,3.4 -24.2,3.3 h -11.4 c -18.9,0 -23.9,-7.7 -22.2,-14.8 1.5,-6.4 3.4,-14 3.8,-15.5 l 0.1,-0.3 c 1.3,-5.3 1.8,-10 8,-14.5 5.5,-4 14.7,-4 26,-4 z m -93.4,-10.9 v 0 h 14.5 c 0.4,0 0.9,0.2 1.1,0.5 0.4,0.5 0.6,1.3 0.4,2.2 l -2,8.3 h 16.1 c 1.5,0 7.5,0.1 9.3,0.2 2.1,0.1 4.2,0.3 6.2,1 9.8,3 12.8,9.4 10,20.2 0,0 -2.3,10.4 -3,12.9 -3.7,13.3 -17,14.6 -29.4,14.6 -8.6,0 -34.9,0 -39,0 h -0.5 l 13.7,-57.3 c 0.3,-1.5 1.3,-2.6 2.6,-2.6 z m 160,11.2 v 0 h 30.4 c 0.3,0 7.6,0.1 9.6,0.2 2.1,0.1 4.2,0.5 6.2,1 9.6,2.8 13,9.6 10,20.2 L 401,41.2 h -40.6 c -0.4,0 -9.9,-0.1 -12.5,-0.4 -2.6,-0.3 -4.9,-0.9 -6.7,-2 -4.9,-2.6 -6.8,-6.6 -5.5,-12.1 0.8,-3.3 2.6,-6.3 5.4,-8.9 2.8,-2.6 6.1,-4.3 9.8,-5.2 3.3,-0.8 8.7,-1.3 15.9,-1.3 h 20.4 c 1.2,0 1.8,-0.3 2.2,-1.7 1.1,-3.6 -0.5,-6.3 -7.1,-6.3 h -34.1 c -0.4,0 -1,-0.2 -1.3,-0.5 -0.4,-0.5 -0.6,-1.1 -0.4,-2.2 l 1.3,-5.6 c 0.6,-1.4 1.6,-2.5 3.4,-2.5 z m -302,-11.6 v 0 h 36.1 c 3.8,0 10.3,0.2 15.5,1.8 4.5,1.4 7.2,3.9 8.7,7.1 1,2 1.2,4.4 0.5,7.2 -0.9,3.5 -2.9,6.6 -6,9.1 -3.2,2.7 -5.5,4.1 -5.5,4.1 -0.6,0.4 -1,0.8 -1,1.1 0,0.2 0.1,0.3 0.3,0.4 0.8,0.4 9.5,5.3 9.5,12.4 1,-2.3 2.5,-4.4 4.5,-6.3 2.8,-2.6 6.1,-4.3 9.8,-5.2 3.3,-0.8 8.7,-1.3 15.9,-1.3 h 19.9 c 1.2,0 1.8,-0.3 2.2,-1.7 1.1,-3.6 -0.5,-6.3 -7.1,-6.3 h -33.6 c -0.5,0 -1,-0.2 -1.3,-0.5 -0.4,-0.5 -0.6,-1.1 -0.4,-2.2 l 1.3,-5.6 c 0.3,-1.4 1.4,-2.6 3.2,-2.6 h 30.8 c 0.9,0 7.6,0.1 9.5,0.2 2.1,0.1 4.2,0.5 6.2,1 9.6,2.8 13.1,9 10.3,20.2 l -6.6,27.3 h -37.1 -3.6 c -0.4,0 -9.9,-0.1 -12.5,-0.4 -2.6,-0.3 -4.9,-0.9 -6.6,-2 -4.5,-2.4 -6.4,-6 -5.7,-10.9 v 0.1 c -1.2,2.8 -3,5.2 -5.8,7.2 -3.1,2.3 -5.6,3.5 -11.2,4.8 -4.3,1 -14.5,1 -15,1 -1.1,0 -2.7,0.1 -3.7,0.1 H 32.9 l 13.6,-57.7 c 0.4,-1.3 1.6,-2.4 2.7,-2.4 z m 389.2,55.2 -0.2,0.8 h -1.7 l -0.9,4.3 h -1.1 l 0.9,-4.3 h -1.8 l 0.2,-0.8 z m 2.4,0 0.4,2 c 0.1,0.6 0.1,1.2 0.2,1.8 v 0 c 0.3,-0.5 0.6,-1.2 1,-1.8 l 1.3,-2 h 1.5 l -0.7,5 h -1.1 l 0.3,-2 c 0.1,-0.7 0.2,-1.4 0.4,-2.1 v 0 c -0.3,0.6 -0.7,1.3 -1.1,1.9 l -1.4,2.2 h -0.9 l -0.4,-2.2 c -0.1,-0.6 -0.2,-1.3 -0.2,-2 l -0.2,0.7 c -0.1,0.5 -0.3,1 -0.4,1.5 l -0.6,2 h -1 l 1.5,-5 z m -98.3,-54.9 c 0.5,0 0.9,0.2 1.2,0.5 0.4,0.5 0.6,1.3 0.3,2.2 l -13.7,57.2 h -18.9 l 13.7,-57.3 c 0.3,-1.4 1.5,-2.6 2.6,-2.6 h 14.8 z m 112.9,0 c 0.4,0 1,0.2 1.2,0.5 0.4,0.5 0.5,1.3 0.3,2.2 l -1.6,6.9 c -0.3,1.4 -1.5,2.6 -2.6,2.6 h -16.1 c -0.8,0 -1.6,0.8 -1.9,2.2 l -10.9,45.6 h -19.9 l 10.9,-45.7 c 0.2,-0.7 0.2,-1.3 -0.1,-1.7 -0.2,-0.2 -0.6,-0.4 -0.8,-0.4 h -6.8 c -0.4,0 -0.9,-0.2 -1.1,-0.5 -0.4,-0.5 -0.5,-1.3 -0.3,-2.2 l 1.7,-7.4 c 0.3,-1.4 1.4,-2.1 2.6,-2.1 z M 155.9,22.3 H 135 c -3.9,0 -5.3,0.3 -6.7,1 -1.3,0.8 -2.1,1.9 -2.4,3.2 -0.3,1.5 0.2,2.7 1.4,3.2 1.3,0.6 2.9,0.7 6.4,0.7 h 20.1 c 0.8,0 1.8,-1 2.1,-2.2 l 0.9,-3.9 c 0.1,-0.7 0.1,-1.4 -0.3,-1.7 -0.1,-0.2 -0.3,-0.3 -0.6,-0.3 z m 229.2,0 h -20.9 c -3.9,0 -5.3,0.3 -6.7,1 -1.3,0.8 -2.1,1.9 -2.4,3.2 -0.3,1.5 0.2,2.7 1.4,3.2 1.3,0.6 2.9,0.7 6.4,0.7 H 383 c 0.8,0 1.8,-1 2,-2.2 l 0.9,-3.9 c 0.2,-0.7 0.1,-1.4 -0.3,-1.7 0,-0.2 -0.2,-0.3 -0.5,-0.3 z M 73.3,16.7 H 63 c -1.1,0 -1.9,0.8 -2.2,1.9 l -2.3,9.8 c -0.1,0.6 -0.1,1.1 0.3,1.5 0.2,0.3 0.5,0.4 0.8,0.4 0,0 9.5,0 10.5,0 0,0 3.2,0 4.6,-0.1 1.4,-0.2 2.8,-0.5 4.1,-1.1 3.3,-1.4 5.1,-3.4 5.7,-5.9 0.6,-2.3 -0.3,-4.1 -2.8,-5.2 -2.8,-1.3 -6.8,-1.2 -9.1,-1.2 h 0.7 z M 215.2,5.5 H 202 v 0 l -5.2,22.3 h 15.4 c 5.5,0 11.3,-0.6 13,-6.7 0.3,-1.1 1.3,-5.8 1.3,-5.9 1.3,-4.8 -0.2,-7.9 -4.4,-9.2 -0.9,-0.2 -1.8,-0.4 -2.7,-0.4 -0.9,-0.1 -4.1,-0.1 -4.2,-0.1 z m 63.4,-0.1 c -3.8,0 -6.8,0.3 -8.9,1.8 -3.3,2.3 -3.3,3.8 -4.8,9.4 -1.4,5.1 -1.5,6.6 0.9,8.7 2.5,2.2 6.8,2.2 12.8,2.2 h 2.6 c 4.9,0.1 8.9,0.1 11.8,-1.7 3.4,-2.1 3.9,-4.5 4.6,-7.7 l 0.3,-1.2 0.2,-0.8 c 0.8,-3.2 1.3,-5.5 -0.6,-7.6 -2.3,-2.5 -4,-3.1 -14.3,-3.1 z M 80.6,-7.9 H 68.8 c -0.9,0 -1.8,0.8 -2.1,1.9 l -2.3,9.8 c -0.1,0.6 -0.1,1.1 0.3,1.5 0.2,0.2 0.5,0.4 0.8,0.4 h 10.9 c 0.7,0 3.2,0 4.4,-0.2 1.4,-0.2 2.7,-0.6 4.1,-1.1 3.3,-1.4 4.9,-3.5 5.6,-5.9 1.5,-5.6 -4.6,-6.4 -9.9,-6.4 z"
   id="path4" />
</svg>
