<?xml version="1.0" encoding="UTF-8" standalone="no"?>
<!-- Created with Inkscape (http://www.inkscape.org/) -->

<svg
   xmlns:dc="http://purl.org/dc/elements/1.1/"
   xmlns:cc="http://creativecommons.org/ns#"
   xmlns:rdf="http://www.w3.org/1999/02/22-rdf-syntax-ns#"
   xmlns:svg="http://www.w3.org/2000/svg"
   xmlns="http://www.w3.org/2000/svg"
   xmlns:sodipodi="http://sodipodi.sourceforge.net/DTD/sodipodi-0.dtd"
   xmlns:inkscape="http://www.inkscape.org/namespaces/inkscape"
   width="75"
   height="48"
   viewBox="0 0 75.000001 48.000001"
   id="svg10555"
   version="1.1"
   inkscape:version="0.91 r13725"
   sodipodi:docname="gilbert.svg">
  <defs
     id="defs10557">
    <clipPath
       id="clipPath6178"
       clipPathUnits="userSpaceOnUse">
      <path
         inkscape:connector-curvature="0"
         id="path6180"
         d="m 476.208,165.192 59.629,0 0,52.976 -59.629,0 0,-52.976 z" />
    </clipPath>
  </defs>
  <sodipodi:namedview
     id="base"
     pagecolor="#ffffff"
     bordercolor="#666666"
     borderopacity="1.0"
     inkscape:pageopacity="0.0"
     inkscape:pageshadow="2"
     inkscape:zoom="11.3125"
     inkscape:cx="37.5"
     inkscape:cy="24"
     inkscape:document-units="px"
     inkscape:current-layer="layer1"
     showgrid="false"
     units="px"
     inkscape:window-width="1280"
     inkscape:window-height="744"
     inkscape:window-x="-4"
     inkscape:window-y="-4"
     inkscape:window-maximized="1" />
  <metadata
     id="metadata10560">
    <rdf:RDF>
      <cc:Work
         rdf:about="">
        <dc:format>image/svg+xml</dc:format>
        <dc:type
           rdf:resource="http://purl.org/dc/dcmitype/StillImage" />
        <dc:title></dc:title>
      </cc:Work>
    </rdf:RDF>
  </metadata>
  <g
     inkscape:label="Layer 1"
     inkscape:groupmode="layer"
     id="layer1"
     transform="translate(0,-1004.3622)">
    <g
       id="g6174"
       transform="matrix(1.25,0,0,-1.25,-595.02813,1267.9622)">
      <g
         clip-path="url(#clipPath6178)"
         id="g6176">
        <path
           inkscape:connector-curvature="0"
           id="path6182"
           style="fill:#000000;fill-opacity:1;fill-rule:nonzero;stroke:none"
           d="m 492.431,179.933 4.348,0 0,-0.924 -0.47,0 c -0.296,0 -0.485,-0.0379 -0.568,-0.106 -0.084,-0.0679 -0.121,-0.235 -0.121,-0.5069 l 0,-4.575 0.583,0 c 0.568,-1e-4 0.962,0.023 1.181,0.0759 0.212,0.045 0.394,0.1361 0.53,0.2571 0.159,0.1369 0.281,0.3329 0.364,0.576 0.083,0.25 0.144,0.5979 0.182,1.038 l 0.977,0 0,-2.8711 -7.006,0 0,0.924 0.417,0 c 0.287,0 0.477,0.03 0.553,0.099 0.083,0.0681 0.128,0.2341 0.128,0.507 l 0,3.969 c 0,0.2801 -0.045,0.4461 -0.128,0.5151 -0.076,0.0679 -0.266,0.0979 -0.553,0.0979 l -0.417,0 0,0.924 z m -4.855,-7.036 0,0.924 0.462,0 c 0.288,0 0.47,0.03 0.553,0.099 0.084,0.0681 0.121,0.2341 0.121,0.507 l 0,3.969 c 0,0.2801 -0.037,0.4461 -0.121,0.5151 -0.083,0.0679 -0.265,0.0979 -0.553,0.0979 l -0.462,0 0,0.924 4.408,0 0,-0.924 -0.454,0 c -0.296,0 -0.485,-0.0379 -0.568,-0.106 -0.083,-0.0679 -0.121,-0.235 -0.121,-0.5069 l 0,-3.969 c 0,-0.2651 0.038,-0.432 0.121,-0.5071 0.083,-0.069 0.272,-0.099 0.568,-0.099 l 0.454,0 0,-0.924 -4.408,0 z m 16.708,7.036 0,-0.947 c -0.121,0.016 -0.265,0.023 -0.417,0.023 l -0.545,0 0,-1.9989 0.507,0 c 0.167,0 0.319,0.007 0.455,0.0219 l 0,-0.931 c -0.114,0.007 -0.242,0.0151 -0.378,0.0151 l -0.584,0 0,-2.295 0.591,0 c 0.136,-1e-4 0.257,-1e-4 0.371,0.0149 l 0,-0.939 -4.143,0 0,0.924 0.409,0 c 0.296,0 0.477,0.03 0.56,0.099 0.083,0.0681 0.122,0.2341 0.122,0.507 l 0,3.969 c 0,0.2801 -0.039,0.4461 -0.122,0.5151 -0.083,0.0679 -0.264,0.0979 -0.56,0.0979 l -0.409,0 0,0.924 4.143,0 z m -18.912,-7.112 -0.28,0.5381 c -0.363,-0.2271 -0.742,-0.394 -1.136,-0.507 -0.386,-0.1061 -0.795,-0.1671 -1.219,-0.1671 -1.144,0 -2.053,0.3251 -2.727,0.9841 -0.666,0.6519 -1.007,1.5379 -1.007,2.6439 0,1.1431 0.348,2.06 1.053,2.7721 0.696,0.7039 1.605,1.06 2.726,1.06 0.402,0 0.788,-0.053 1.144,-0.159 0.356,-0.106 0.697,-0.272 1.03,-0.4921 l 0.197,0.515 1.022,0 0,-2.8329 -1.068,0 c -0.083,0.651 -0.272,1.129 -0.591,1.4469 -0.31,0.3111 -0.749,0.4691 -1.325,0.4691 -0.576,0 -1.015,-0.2191 -1.318,-0.643 -0.295,-0.4321 -0.439,-1.068 -0.439,-1.9011 0,-0.9929 0.136,-1.712 0.409,-2.151 0.273,-0.4469 0.704,-0.6669 1.302,-0.6669 0.425,0 0.72,0.0609 0.887,0.1969 0.166,0.129 0.25,0.379 0.25,0.743 l 0,0.491 c 0,0.2501 -0.038,0.402 -0.099,0.4631 -0.068,0.0529 -0.212,0.0829 -0.439,0.0829 l -0.538,0 0,0.924 4.067,0 0,-0.924 -0.393,0 c -0.198,0 -0.334,-0.03 -0.41,-0.099 -0.068,-0.0679 -0.106,-0.1889 -0.106,-0.371 l 0,-2.416 -0.992,0 z m 22.979,0.076 0,0.924 0.409,0 c 0.296,0 0.478,0.03 0.56,0.099 0.0841,0.0681 0.122,0.2341 0.122,0.507 l 0,3.969 c 0,0.2801 -0.0379,0.4461 -0.122,0.5151 -0.082,0.0679 -0.264,0.0979 -0.56,0.0979 l -0.409,0 0,0.924 7.385,0 0,-2.688 -0.977,0 c -0.069,0.408 -0.137,0.7191 -0.22,0.9311 -0.0829,0.2119 -0.197,0.379 -0.3329,0.4919 -0.1371,0.1291 -0.3191,0.2121 -0.5301,0.2661 -0.2199,0.052 -0.614,0.0749 -1.174,0.0749 l -0.97,0 0,-1.9989 0.189,0 c 0.409,0 0.69,0.0679 0.826,0.2189 0.144,0.144 0.212,0.4401 0.212,0.8861 l 0.932,0 0,-3.211 -0.932,0.008 c -0.016,0.4921 -0.083,0.81 -0.205,0.9541 -0.128,0.144 -0.408,0.2199 -0.833,0.2199 l -0.189,0 0,-2.265 1.008,0 c 0.817,0 1.371,0.1291 1.658,0.3941 0.288,0.265 0.477,0.795 0.561,1.5829 l 0.977,0 0,-2.901 -7.385,0 z m -4.067,0 0,0.939 c 0.371,0.0311 0.644,0.1141 0.833,0.25 0.258,0.1821 0.379,0.47 0.379,0.8641 0,0.409 -0.121,0.704 -0.379,0.8859 -0.189,0.1441 -0.462,0.227 -0.833,0.265 l 0,0.931 c 0.272,0.0381 0.477,0.1141 0.621,0.22 0.227,0.1671 0.333,0.4241 0.333,0.78 0,0.3481 -0.106,0.591 -0.318,0.75 -0.144,0.106 -0.356,0.1741 -0.636,0.2041 l 0,0.947 0.22,0 c 0.969,-1e-4 1.681,-0.136 2.135,-0.4011 0.455,-0.265 0.682,-0.6819 0.682,-1.258 0,-0.386 -0.129,-0.7269 -0.393,-1.007 -0.266,-0.28 -0.653,-0.5 -1.152,-0.6509 0.651,-0.1291 1.136,-0.3491 1.454,-0.636 0.318,-0.296 0.477,-0.6821 0.477,-1.1521 0,-0.6889 -0.257,-1.1889 -0.765,-1.4839 -0.507,-0.2961 -1.362,-0.4471 -2.56,-0.4471 l -0.098,0 z m 16.7,7.036 0,-0.931 c -0.076,0.007 -0.159,0.007 -0.242,0.007 l -0.879,0 0,-1.9839 0.788,0 c 0.122,0 0.235,0.007 0.333,0.015 l 0,-0.939 c -0.061,0.007 -0.128,0.007 -0.204,0.007 l -0.917,0 0,-1.681 c 0,-0.265 0.046,-0.4319 0.122,-0.507 0.0831,-0.069 0.272,-0.099 0.568,-0.099 l 0.401,0 0,-0.924 -4.279,0 0,0.924 0.4161,0 c 0.2889,0 0.4779,0.03 0.5609,0.099 0.076,0.0681 0.121,0.2341 0.121,0.507 l 0,3.969 c 0,0.2801 -0.045,0.4461 -0.121,0.5151 -0.083,0.0679 -0.272,0.0979 -0.561,0.0979 l -0.416,0 0,0.924 4.309,0 z m 4.211,-5.0889 -0.598,0 c 0,-0.4171 -0.03,-0.713 -0.083,-0.864 -0.061,-0.1591 -0.159,-0.235 -0.296,-0.235 -0.121,0 -0.204,0.0529 -0.257,0.159 -0.046,0.099 -0.069,0.3029 -0.069,0.599 l 0,0.6739 c 0,0.431 -0.098,0.7571 -0.302,0.9771 -0.205,0.2189 -0.546,0.371 -1.023,0.4469 0.56,0.0981 0.985,0.2801 1.28,0.5531 0.288,0.272 0.439,0.6129 0.439,1.022 0,0.5909 -0.227,1.03 -0.666,1.3179 -0.447,0.288 -1.121,0.439 -2.03,0.439 l -0.606,0 0,-0.931 c 0.379,-0.023 0.651,-0.099 0.818,-0.228 0.205,-0.151 0.311,-0.416 0.311,-0.795 0,-0.356 -0.106,-0.606 -0.311,-0.742 -0.159,-0.114 -0.431,-0.174 -0.818,-0.1969 l 0,-0.939 c 0.303,-0.0151 0.507,-0.076 0.621,-0.1741 0.129,-0.1219 0.197,-0.379 0.197,-0.7659 l 0,-0.674 c 0,-0.62 0.144,-1.0751 0.439,-1.363 0.289,-0.295 0.75,-0.4391 1.372,-0.4391 0.598,0 1.037,0.1591 1.3171,0.462 0.1059,0.1211 0.198,0.265 0.2649,0.431 l 0,1.2661 z m 0,2.37 -0.159,0 0,2.7189 0.159,0 0,-2.7189 z m 0,0 0.841,0 c 0,0.606 0.121,1.046 0.363,1.341 0.243,0.287 0.622,0.431 1.129,0.431 l 0.106,0 0,-4.3391 0,-0.1369 c 0,-0.2341 -0.007,-0.394 -0.038,-0.47 -0.022,-0.075 -0.068,-0.1281 -0.136,-0.1431 -0.106,-0.0379 -0.243,-0.061 -0.416,-0.076 -0.167,-0.015 -0.3639,-0.023 -0.599,-0.023 l 0,-0.901 4.431,0 0,0.901 c -0.326,0.008 -0.561,0.0161 -0.69,0.0311 -0.128,0.015 -0.235,0.038 -0.31,0.0679 -0.068,0.015 -0.114,0.0681 -0.137,0.1431 -0.029,0.076 -0.045,0.2359 -0.045,0.478 l 0,4.468 0.121,0 c 0.5,0 0.871,-0.144 1.114,-0.431 0.242,-0.2881 0.3631,-0.735 0.3631,-1.341 l 1.007,0 0,2.7189 -7.104,0 -10e-5,-2.7189 z m 0,-3.6361 0,1.2661 0.144,0 c 10e-5,-0.0311 10e-5,-0.076 0.008,-0.1371 l 0,-0.128 c 0,-0.402 -0.054,-0.728 -0.152,-1.001" />
        <path
           inkscape:connector-curvature="0"
           id="path6184"
           style="fill:#000000;fill-opacity:1;fill-rule:nonzero;stroke:none"
           d="m 495.877,183.485 c -5.756,-1.5899 -12.572,-2.552 -19.669,-2.621 l 0,0.038 c 8.763,0.333 15.7,2.9921 19.669,6.8621 l 0,-2.355 c -3.067,-1.667 -6.861,-2.962 -11.111,-3.7341 4.158,0.6361 7.915,1.6431 11.111,2.916 l 0,-1.106 z m -19.669,27.19 c 7.097,-0.061 13.913,-1.0229 19.669,-2.621 l 0,-1.098 c -3.196,1.2721 -6.96,2.2721 -11.118,2.9161 4.257,-0.7731 8.051,-2.067 11.118,-3.741 l 0,-2.356 c -3.969,3.87 -10.906,6.536 -19.669,6.87 l 0,0.0299 z m 19.669,-22.9109 0,-2.355 c 4.923,2.681 7.968,6.3389 7.968,10.361 0,4.0209 -3.045,7.6719 -7.968,10.361 l 0,-2.356 c 2.371,-2.317 3.673,-5.067 3.673,-8.005 0,-2.9471 -1.302,-5.696 -3.673,-8.006 m 0,20.2899 c 9.695,-2.6879 16.397,-7.1949 16.397,-12.2839 0,-5.09 -6.702,-9.596 -16.397,-12.2851 l 0,1.106 c 6.854,2.726 11.103,6.7331 11.103,11.1791 0,4.4459 -4.249,8.4519 -11.103,11.186" />
        <path
           inkscape:connector-curvature="0"
           id="path6186"
           style="fill:#000000;fill-opacity:1;fill-rule:nonzero;stroke:none"
           d="m 516.168,187.7641 0,-2.355 c -4.923,2.681 -7.968,6.3389 -7.968,10.36 0,4.0219 3.045,7.6729 7.968,10.361 l 0,-2.355 c -2.37,-2.3181 -3.681,-5.067 -3.681,-8.006 0,-2.9461 1.311,-5.695 3.681,-8.005 m 0,20.2899 c -9.702,-2.6889 -16.397,-7.1949 -16.397,-12.2849 0,-5.089 6.695,-9.595 16.397,-12.2841 l 0,1.106 c -6.854,2.726 -11.111,6.7331 -11.111,11.1781 0,4.446 4.257,8.4529 11.111,11.187 l 0,1.0979 z m 0,-24.569 c 5.755,-1.5909 12.573,-2.552 19.669,-2.621 l 0,0.038 c -8.763,0.333 -15.7,2.9921 -19.669,6.8621 l 0,-2.355 c 3.068,-1.667 6.862,-2.962 11.11,-3.7341 -4.157,0.6361 -7.914,1.6431 -11.11,2.916 l 0,-1.106 z m 19.669,27.19 c -7.096,-0.061 -13.914,-1.0229 -19.669,-2.621 l 0,-1.098 c 3.196,1.2721 6.9601,2.2721 11.117,2.9161 -4.255,-0.7731 -8.049,-2.0681 -11.117,-3.742 l 0,-2.355 c 3.969,3.87 10.906,6.536 19.669,6.87" />
      </g>
    </g>
  </g>
</svg>
